<svg xmlns="http://www.w3.org/2000/svg" width="450" height="450" viewBox="0 0 450 450" version="1.1">
	<path d="M 216.224 47.469 C 213.872 48.204, 210.800 49.556, 209.399 50.474 C 203.159 54.563, 36.347 179.846, 35.062 181.410 C 34.270 182.372, 33.532 185.034, 33.421 187.326 C 33.255 190.759, 33.726 191.978, 36.100 194.246 C 39.973 197.947, 44.384 197.883, 50.100 194.044 L 54.500 191.089 55 288.794 L 55.500 386.500 58.235 391.153 C 60.266 394.608, 62.313 396.475, 66.182 398.403 L 71.393 401 225 401 L 378.607 401 383.818 398.403 C 387.687 396.475, 389.734 394.608, 391.765 391.153 L 394.500 386.500 395 288.500 L 395.500 190.500 398.290 193.245 C 403.142 198.018, 410.425 197.924, 415.136 193.028 C 417.137 190.949, 417.018 183.940, 414.938 181.407 C 414.147 180.443, 376.825 152.228, 332 118.707 C 287.175 85.186, 250 57.138, 249.390 56.379 C 248.779 55.621, 247.988 55, 247.631 55 C 247.274 55, 245.113 53.646, 242.828 51.990 C 235.176 46.447, 225.022 44.722, 216.224 47.469 M 219.207 68.015 C 214.903 70.640, 180.397 96.603, 177.915 99.085 C 176.862 100.138, 175.741 101, 175.424 101 C 174.555 101, 162.683 110.085, 161.250 111.846 C 160.563 112.691, 160 113.062, 160 112.670 C 160 111.916, 124.205 138.424, 122.500 140.441 C 121.950 141.092, 120.713 141.919, 119.750 142.281 C 118.788 142.642, 118 143.401, 118 143.969 C 118 144.536, 117.311 145, 116.469 145 C 115.626 145, 114.678 145.675, 114.362 146.500 C 114.045 147.325, 113.372 148, 112.867 148 C 111.590 148, 102 155.248, 102 156.213 C 102 156.646, 101.542 157, 100.982 157 C 100.423 157, 94.367 161.162, 87.525 166.250 L 75.086 175.500 75.043 278.250 L 75 381 225 381 L 375 381 374.957 278.250 L 374.915 175.500 364.478 167.750 C 358.738 163.488, 353.582 160, 353.021 160 C 352.459 160, 352 159.646, 352 159.213 C 352 158.201, 342.379 151, 341.026 151 C 340.462 151, 340 150.536, 340 149.969 C 340 149.401, 339.212 148.642, 338.250 148.281 C 337.288 147.919, 336.050 147.087, 335.500 146.430 C 333.657 144.229, 263.233 92, 262.109 92 C 261.499 92, 261 91.613, 261 91.141 C 261 90.236, 233.068 69.068, 229.316 67.129 C 226.108 65.471, 222.921 65.751, 219.207 68.015 M 212.008 170.566 C 202.209 172.690, 196.311 174.991, 187.500 180.128 C 172.874 188.656, 161.536 200.906, 153.604 216.750 L 149.975 224 142.737 224.152 C 138.757 224.236, 135.050 224.390, 134.500 224.494 C 127.204 225.874, 116.780 230.872, 110.737 235.887 C 89.869 253.210, 84.289 280.258, 96.201 306.354 C 97.995 310.284, 99.921 314.017, 100.481 314.650 C 101.042 315.282, 103.750 318.462, 106.500 321.717 C 116.378 333.408, 129.029 340.314, 145.500 343.007 C 153.488 344.314, 296.512 344.314, 304.500 343.007 C 319.781 340.508, 329.817 335.289, 341.121 323.963 C 359.840 305.205, 364.958 278.614, 354.779 253 C 353.577 249.975, 352.010 246.905, 351.297 246.179 C 350.584 245.452, 350 244.252, 350 243.512 C 350 242.772, 349.663 242.017, 349.250 241.833 C 348.837 241.650, 346.562 239.157, 344.193 236.294 C 341.825 233.430, 337.550 229.395, 334.693 227.327 C 331.837 225.258, 329.275 223.326, 329 223.033 C 327.414 221.342, 318.781 217.798, 312.571 216.288 C 305.565 214.585, 305.292 214.401, 302.092 209.213 C 286.554 184.022, 259.191 168.868, 229.622 169.079 C 223.505 169.123, 215.579 169.792, 212.008 170.566 M 215.293 190.508 C 197.617 194.349, 180.855 207.511, 172.406 224.185 L 170.017 228.900 176.363 233.700 C 191.172 244.901, 199.935 261.050, 199.985 277.234 C 200.004 283.257, 196.365 287.773, 190.777 288.661 C 187.495 289.183, 186.654 288.853, 183.689 285.877 C 180.795 282.972, 180.231 281.590, 179.653 276 C 178.358 263.479, 170.608 252.440, 159.216 246.892 C 155.339 245.003, 152.811 244.586, 145 244.547 C 136.049 244.503, 135.138 244.697, 129.232 247.899 C 114.886 255.678, 107.945 270.430, 110.958 286.733 C 112.045 292.612, 115.531 300.877, 118.636 304.938 C 121.845 309.136, 129.327 316, 130.693 316 C 131.412 316, 132 316.367, 132 316.816 C 132 318.331, 142.961 322.189, 149.755 323.065 C 159.563 324.330, 294.033 324.223, 301.914 322.944 C 337.240 317.212, 351.895 274.835, 327.703 248.366 C 319.800 239.719, 311.123 235.483, 298.683 234.202 C 291.144 233.426, 291.866 234.104, 286.367 222.633 C 284.820 219.406, 282.980 216.546, 282.277 216.276 C 281.575 216.007, 281 215.261, 281 214.620 C 281 213.978, 277.962 210.535, 274.250 206.970 C 258.834 192.162, 236.445 185.911, 215.293 190.508" stroke="none" fill="black" fill-rule="evenodd"/>
</svg>